#N canvas 0 56 1366 671 12;
#X obj 12 12 inlet;
#X obj 354 12 inlet;
#X obj 12 42 unpack;
#X obj 12 72 spigot;
#X obj 354 132 s \$0-id;
#X obj 261 373 tabread4~;
#X obj 271 315 r \$0-id;
#X msg 271 344 set \$1-hann;
#X obj 12 283 line~;
#X obj 58 193 +, f 13;
#X obj 410 132 s \$0-samplerate;
#X obj 467 102 s \$0-duration;
#X obj 146 33 r \$0-duration;
#X obj 156 103 r \$0-samplerate;
#X obj 12 223 pack f f f;
#X msg 12 253 \$1 \, \$2 \$3;
#X obj 156 133 t b f;
#X obj 261 286 line~;
#X msg 261 257 1 \, 128 \$1;
#X obj 261 228 f;
#X obj 12 373 tabread4~;
#X obj 22 313 r \$0-id;
#X obj 12 593 *~, f 36;
#X obj 12 623 outlet~;
#X obj 146 163 *;
#X msg 22 343 set \$1-buffer0;
#X msg 136 343 set \$1-buffer1;
#X obj 126 373 tabread4~;
#X obj 12 563 *~;
#X obj 126 563 *~;
#X obj 523 132 s \$0-switch;
#X obj 62 433 sel 0 1, f 33;
#X obj 30 533 line~;
#X obj 144 533 line~;
#X obj 62 403 r \$0-switch;
#X obj 12 193 f;
#X obj 580 102 s \$0-time;
#X msg 30 503 0 10;
#X msg 62 503 1 10;
#X msg 176 503 1 10;
#X msg 144 503 0 10;
#X obj 176 463 delay 10;
#X obj 62 463 delay 10;
#X obj 636 132 s \$0-pitch;
#X msg 833 62 0;
#X obj 833 32 loadbang;
#X obj 693 102 s \$0-pitch-random;
#N canvas 0 56 1366 671 pitch 0;
#X obj 149 389 inlet;
#X obj 208 479 *;
#X obj 234 449 pow, f 4;
#X obj 226 299 r \$0-pitch;
#X obj 259 419 / 12;
#X msg 234 419 2;
#X obj 208 389 t b b f, f 8;
#X obj 208 179 random, f 9;
#X obj 208 239 * 0.001;
#X obj 208 519 outlet;
#X obj 268 89 r \$0-pitch-random;
#X obj 208 359 +, f 5;
#X obj 268 119 * 1000;
#X obj 268 149 * 2;
#X obj 208 149 r \$0-on;
#X obj 208 209 -;
#X obj 208 269 t b f;
#X obj 208 329 f;
#X connect 0 0 1 0;
#X connect 1 0 9 0;
#X connect 2 0 1 1;
#X connect 3 0 17 1;
#X connect 4 0 2 1;
#X connect 5 0 2 0;
#X connect 6 0 1 0;
#X connect 6 1 5 0;
#X connect 6 2 4 0;
#X connect 7 0 15 0;
#X connect 8 0 16 0;
#X connect 10 0 12 0;
#X connect 11 0 6 0;
#X connect 12 0 13 0;
#X connect 12 0 15 1;
#X connect 13 0 7 1;
#X connect 14 0 7 0;
#X connect 15 0 8 0;
#X connect 16 0 17 0;
#X connect 16 1 11 1;
#X connect 17 0 11 0;
#X restore 146 73 pd pitch;
#X obj 12 102 t f b;
#X obj 82 132 s \$0-on;
#X obj 12 162 t b f f;
#N canvas 5 61 450 300 spray 0;
#X obj 152 34 r \$0-spray;
#X obj 152 124 *;
#X obj 106 154 random, f 7;
#X obj 162 64 r \$0-samplerate;
#X obj 162 94 t b f;
#X obj 74 94 inlet;
#X obj 74 214 outlet;
#X obj 74 124 t f b;
#X obj 74 184 -, f 5;
#X connect 0 0 1 0;
#X connect 1 0 2 1;
#X connect 2 0 8 1;
#X connect 3 0 4 0;
#X connect 4 0 1 0;
#X connect 4 1 1 1;
#X connect 5 0 7 0;
#X connect 7 0 8 0;
#X connect 7 1 2 0;
#X connect 8 0 6 0;
#X restore 12 132 pd spray;
#X obj 354 42 route id samplerate duration switch time pitch pitch-random
spray, f 65;
#X obj 749 132 s \$0-spray;
#X connect 0 0 2 0;
#X connect 1 0 52 0;
#X connect 2 0 3 0;
#X connect 2 1 3 1;
#X connect 3 0 48 0;
#X connect 5 0 22 1;
#X connect 6 0 7 0;
#X connect 7 0 5 0;
#X connect 8 0 20 0;
#X connect 8 0 27 0;
#X connect 9 0 14 1;
#X connect 12 0 19 1;
#X connect 12 0 14 2;
#X connect 12 0 47 0;
#X connect 13 0 16 0;
#X connect 14 0 15 0;
#X connect 15 0 8 0;
#X connect 16 0 24 0;
#X connect 16 1 24 1;
#X connect 17 0 5 0;
#X connect 18 0 17 0;
#X connect 19 0 18 0;
#X connect 20 0 28 0;
#X connect 21 0 25 0;
#X connect 21 0 26 0;
#X connect 22 0 23 0;
#X connect 24 0 9 1;
#X connect 25 0 20 0;
#X connect 26 0 27 0;
#X connect 27 0 29 0;
#X connect 28 0 22 0;
#X connect 29 0 22 0;
#X connect 31 0 40 0;
#X connect 31 0 42 0;
#X connect 31 1 37 0;
#X connect 31 1 41 0;
#X connect 32 0 28 1;
#X connect 33 0 29 1;
#X connect 34 0 31 0;
#X connect 35 0 14 0;
#X connect 37 0 32 0;
#X connect 38 0 32 0;
#X connect 39 0 33 0;
#X connect 40 0 33 0;
#X connect 41 0 39 0;
#X connect 42 0 38 0;
#X connect 44 0 43 0;
#X connect 45 0 44 0;
#X connect 47 0 24 0;
#X connect 48 0 51 0;
#X connect 48 1 49 0;
#X connect 50 0 19 0;
#X connect 50 0 35 0;
#X connect 50 1 35 1;
#X connect 50 2 9 0;
#X connect 51 0 50 0;
#X connect 52 0 4 0;
#X connect 52 1 10 0;
#X connect 52 2 11 0;
#X connect 52 3 30 0;
#X connect 52 4 36 0;
#X connect 52 5 43 0;
#X connect 52 6 46 0;
#X connect 52 7 53 0;
