#N canvas 0 56 1366 671 12;
#X obj 483 252 loadbang;
#X obj 52 1 loadbang;
#X obj 52 30 samplerate~;
#X obj 483 310 tgl 15 0 empty empty empty 17 7 0 10 -262144 -1 -1 1
1;
#X obj 600 223 table \$0-buffer0;
#X obj 600 252 table \$0-buffer1;
#X msg 62 117 resize \$1;
#X obj 62 146 s \$0-buffer0;
#X obj 160 146 s \$0-buffer1;
#X obj 600 281 table \$0-hann;
#N canvas 52 52 1366 685 hann 0;
#X msg 342 74 resize 131;
#X obj 342 98 s \$0-hann;
#N canvas 0 50 450 250 (subpatch) 0;
#X array \$0-hann2 128 float 2;
#X coords 0 1 128 -1 200 140 1;
#X restore 482 310 graph;
#X obj 245 104 bng 15 250 50 0 empty empty empty 17 7 0 10 -262144
-1 -1;
#X obj 245 129 t b b;
#X obj 245 332 tabwrite~ \$0-hann2;
#X obj 252 255 osc~;
#X obj 252 168 samplerate~;
#X obj 294 139 bng 15 250 50 0 empty empty empty 17 7 0 10 -262144
-1 -1;
#X obj 252 197 / 128;
#X msg 277 226 0.5;
#X obj 1008 243 bng 15 250 50 0 empty empty empty 17 7 0 10 -262144
-1 -1;
#X obj 1008 268 f;
#X obj 1067 268 + 1;
#X obj 1008 297 t f f;
#X obj 1008 326 expr if($f1<128 \, $f1 \, -1);
#X obj 1008 355 sel -1;
#X msg 1026 204 0;
#X obj 1079 413 t f f, f 18;
#X obj 1079 471 tabread \$0-hann2;
#X obj 1079 500 tabwrite \$0-hann, f 18;
#X obj 1047 384 t b f;
#X obj 1202 442 + 1;
#X obj 823 268 f;
#X obj 823 243 bng 15 250 50 0 empty empty empty 17 7 0 10 -262144
-1 -1;
#X obj 823 297 t f f;
#X obj 882 268 + 1;
#X obj 894 413 sel 0 1 2;
#X obj 894 625 tabwrite \$0-hann;
#X obj 894 442 t b b;
#X msg 1003 466 0;
#X obj 914 495 t b b;
#X msg 1013 519 129;
#X obj 894 601 tabread \$0-hann;
#X msg 894 466 128;
#X msg 914 519 1;
#X obj 934 548 t b b;
#X msg 934 572 2;
#X msg 1023 572 130;
#X obj 823 326 expr if($f1<3 \, $f1 \, -1);
#X obj 823 355 sel -1;
#X obj 862 384 t b f;
#X obj 342 45 loadbang;
#X obj 245 74 delay 5;
#X obj 462 207 delay 10;
#X obj 141 426 env~;
#X obj 141 450 dbtorms;
#X floatatom 141 474 5 0 0 0 - - -;
#X obj 180 345 sig~;
#X floatatom 138 316 5 0 0 0 - - -;
#X obj 141 402 tabread \$0-hann;
#X floatatom 259 430 5 0 0 0 - - -;
#X obj 252 279 *~ 0.5;
#X obj 252 303 +~ 0.5;
#X connect 0 0 1 0;
#X connect 3 0 4 0;
#X connect 3 0 44 0;
#X connect 4 0 5 0;
#X connect 4 1 10 0;
#X connect 6 0 52 0;
#X connect 7 0 9 0;
#X connect 8 0 7 0;
#X connect 9 0 6 0;
#X connect 10 0 6 1;
#X connect 11 0 12 0;
#X connect 12 0 14 0;
#X connect 13 0 12 1;
#X connect 14 0 15 0;
#X connect 14 1 13 0;
#X connect 15 0 16 0;
#X connect 16 0 24 0;
#X connect 16 1 21 0;
#X connect 17 0 12 1;
#X connect 17 0 23 1;
#X connect 18 0 19 0;
#X connect 18 1 22 0;
#X connect 19 0 20 0;
#X connect 21 0 11 0;
#X connect 21 1 18 0;
#X connect 22 0 20 1;
#X connect 23 0 25 0;
#X connect 24 0 23 0;
#X connect 25 0 39 0;
#X connect 25 1 26 0;
#X connect 26 0 23 1;
#X connect 27 0 29 0;
#X connect 27 1 31 0;
#X connect 27 2 36 0;
#X connect 29 0 34 0;
#X connect 29 1 30 0;
#X connect 30 0 28 1;
#X connect 31 0 35 0;
#X connect 31 1 32 0;
#X connect 32 0 28 1;
#X connect 33 0 28 0;
#X connect 34 0 33 0;
#X connect 35 0 33 0;
#X connect 36 0 37 0;
#X connect 36 1 38 0;
#X connect 37 0 33 0;
#X connect 38 0 28 1;
#X connect 39 0 40 0;
#X connect 40 1 41 0;
#X connect 41 0 24 0;
#X connect 41 1 27 0;
#X connect 42 0 0 0;
#X connect 42 0 8 0;
#X connect 42 0 43 0;
#X connect 42 0 17 0;
#X connect 43 0 3 0;
#X connect 44 0 11 0;
#X connect 45 0 46 0;
#X connect 46 0 47 0;
#X connect 49 0 48 0;
#X connect 49 0 50 0;
#X connect 50 0 45 0;
#X connect 50 0 51 0;
#X connect 52 0 53 0;
#X connect 53 0 5 0;
#X restore 705 281 pd hann;
#X obj 206 425 r \$0-feedback;
#X obj 206 454 * 0.01;
#X obj 34 541 *~, f 25;
#X msg 206 483 \$1 5;
#X obj 206 512 line~;
#X obj 490 452 line~;
#X obj 444 491 *~, f 7;
#X obj 483 364 t b b, f 6;
#X obj 631 491 *~, f 7;
#X obj 677 452 line~;
#X obj 670 364 t b b, f 6;
#X obj 483 335 sel 0 1, f 54;
#X obj 336 351 tgl 15 0 empty empty empty 17 7 0 10 -262144 -1 -1 1
1;
#X obj 336 321 delay;
#X obj 255 489 r \$0-drywet;
#X obj 255 518 * 0.01;
#X msg 255 576 \$1 5;
#X obj 255 605 line~;
#X obj 34 634 *~, f 32;
#X obj 330 634 *~;
#X obj 348 547 expr 1-$f1;
#X msg 348 576 \$1 5;
#X obj 348 605 line~;
#X obj 368 261 r \$0-time;
#X obj 44 570 s~ \$0-grain-fb;
#X obj 539 452 r~ \$0-grain-fb;
#X obj 111 183 loadbang;
#X obj 111 212 metro 1000;
#X msg 34 367 \$1 1;
#X obj 34 454 - 1;
#X obj 34 483 pack 0 0 0;
#X obj 34 425 poly 16 1, f 10;
#X obj 34 396 unpack;
#X obj 149 88 list prepend samplerate;
#X obj 149 117 s \$0-params;
#X obj 34 512 clone grano~ 16;
#X obj 336 406 s \$0-params;
#X obj 336 376 list prepend switch;
#N canvas 161 161 902 300 stuff 0;
#X obj 138 50 loadbang;
#X obj 138 80 f \$0;
#X obj 138 110 list prepend id;
#N canvas 104 104 450 300 targetall 0;
#X obj 12 185 outlet;
#X obj 12 156 list trim;
#X obj 12 132 list prepend all;
#X obj 12 103 inlet;
#X connect 1 0 0 0;
#X connect 2 0 1 0;
#X connect 3 0 2 0;
#X restore 47 160 pd targetall;
#X obj 47 110 r \$0-params;
#X msg 257 110 duration \$1;
#X obj 257 80 * 2;
#X obj 47 200 outlet;
#X obj 348 80 r \$0-time;
#X msg 348 110 time \$1;
#X msg 425 110 pitch \$1;
#X obj 425 80 r \$0-pitch;
#X obj 509 80 r \$0-pitch-random;
#X msg 509 110 pitch-random \$1;
#X obj 642 80 r \$0-spray;
#X msg 642 110 spray \$1;
#X obj 257 20 r \$0-rate;
#X obj 275 50 r \$0-ratio;
#X connect 0 0 1 0;
#X connect 1 0 2 0;
#X connect 2 0 3 0;
#X connect 3 0 7 0;
#X connect 4 0 3 0;
#X connect 5 0 3 0;
#X connect 6 0 5 0;
#X connect 8 0 9 0;
#X connect 9 0 3 0;
#X connect 10 0 3 0;
#X connect 11 0 10 0;
#X connect 12 0 13 0;
#X connect 13 0 3 0;
#X connect 14 0 15 0;
#X connect 15 0 3 0;
#X connect 16 0 6 0;
#X connect 17 0 6 1;
#X restore 136 483 pd stuff;
#X msg 490 413 0 1;
#X msg 522 413 1 1;
#X msg 709 413 1 1;
#X msg 677 413 0 1;
#X obj 368 291 - 10;
#X obj 16 251 f;
#X obj 34 212 line;
#X obj 34 280 *;
#X obj 34 338 expr if($f1<0 \, $f2+$f1 \, $f1%$f2);
#X obj 34 309 -, f 5;
#X obj 66 251 r \$0-time;
#X obj 66 280 *, f 14;
#X obj 52 59 * 0.001;
#X obj 444 530 tabwrite~ \$0-buffer0 9999;
#X obj 631 530 tabwrite~ \$0-buffer1 9999;
#X obj 483 281 metro 9999;
#X obj 52 88 * 9999;
#X msg 34 183 0 \, 1 9999;
#X obj 178 183 r \$0-rate;
#X obj 444 212 inlet~;
#X obj 330 664 outlet~;
#X obj 960 74 inlet;
#N canvas 0 56 1366 671 route-inlet-messages 0;
#X obj 12 12 inlet;
#N canvas 676 61 681 661 state 0;
#X obj 66 30 inlet;
#N canvas 692 102 669 300 global 0;
#X obj 54 60 f;
#X obj 54 7 inlet;
#X obj 54 276 outlet;
#X obj 72 36 r \$0-time;
#X obj 85 89 r \$0-feedback;
#X obj 117 118 r \$0-rate;
#X obj 148 147 r \$0-ratio;
#X obj 190 89 r \$0-pitch;
#X obj 211 118 r \$0-pitch-random;
#X obj 243 147 r \$0-spray;
#X obj 54 176 pack f f f f f f f f, f 32;
#X obj 275 89 r \$0-drywet;
#X msg 54 205 add2 time \$1 \, addcomma \, add2 feedback \$2 \, addcomma
\, add2 rate \$3 \, addcomma \, add2 ratio \$4 \, addcomma \, add2
pitch \$5 \, addcomma \, add2 pitch random \$6 \, addcomma \, add2
spray \$7 \, addcomma \, add2 drywet \$8;
#X connect 0 0 10 0;
#X connect 1 0 0 0;
#X connect 3 0 0 1;
#X connect 4 0 10 1;
#X connect 5 0 10 2;
#X connect 6 0 10 3;
#X connect 7 0 10 4;
#X connect 8 0 10 5;
#X connect 9 0 10 6;
#X connect 10 0 12 0;
#X connect 11 0 10 7;
#X connect 12 0 2 0;
#X restore 66 175 pd global;
#X obj 66 59 t b b;
#X msg 98 88 set;
#X obj 66 204 s \$0-state;
#X connect 0 0 2 0;
#X connect 1 0 4 0;
#X connect 2 0 1 0;
#X connect 2 1 3 0;
#X connect 3 0 4 0;
#X restore 346 211 pd state;
#X obj 394 241 s \$0-error;
#X obj 23 553 r \$0-error;
#X obj 23 577 bng 15 250 50 0 empty empty empty 17 7 0 10 -262144 -1
-1;
#X msg 23 597 se recibió un mensaje desconocido;
#X text 724 461 acá se manipulan los mensajes de control de la abstracción
\; se utiliza el objeto [route] para enviar el valor del mensaje a
su respectivo [send] \, que enviará el valor a su correspondiente
objeto de control en la interfaz (slider \, número \, etc... si lo
hubiera) y luego de ahí a donde se hará efectivo ese valor como parámetro
\; acá se inicializan también los valores por defecto de dichos parámetros
;
#X obj 23 626 print greindilei~;
#X obj 12 101 s \$0-time-r;
#X obj 59 131 s \$0-feedback-r;
#X obj 107 101 s \$0-rate-r;
#N canvas 5 61 450 300 pitch 0;
#X obj 37 37 inlet;
#X obj 37 67 route float random;
#X obj 37 97 s \$0-pitch-r;
#X obj 98 127 s \$0-pitch-random-r;
#X connect 0 0 1 0;
#X connect 1 0 2 0;
#X connect 1 1 3 0;
#X restore 203 101 pd pitch;
#X obj 276 131 s \$0-spray-r;
#X obj 298 101 s \$0-drywet-r;
#X obj 466 20 loadbang;
#X msg 466 50 2;
#X obj 12 71 route time feedback rate ratio pitch spray drywet state
;
#X obj 178 131 s \$0-ratio-r;
#X connect 0 0 16 0;
#X connect 3 0 4 0;
#X connect 4 0 5 0;
#X connect 5 0 7 0;
#X connect 14 0 15 0;
#X connect 16 0 8 0;
#X connect 16 1 9 0;
#X connect 16 2 10 0;
#X connect 16 3 17 0;
#X connect 16 4 11 0;
#X connect 16 5 12 0;
#X connect 16 6 13 0;
#X connect 16 7 1 0;
#X connect 16 8 2 0;
#X restore 960 103 pd route-inlet-messages;
#X obj 401 44 cnv 15 168 142 empty empty empty 20 12 0 14 -262144 -66577
0;
#X obj 406 61 nbx 6 15 1 8999 0 0 \$0-time \$0-time-r time 0 -8 0 10
-260145 -262144 -133184 1 256;
#X obj 406 96 nbx 5 15 1 1e+37 0 0 \$0-rate \$0-rate-r rate 0 -8 0
10 -260145 -262144 -133184 1 256;
#X obj 406 166 nbx 5 15 0 1e+37 0 0 \$0-spray \$0-spray-r spray 0 -8
0 10 -260145 -262144 -133184 0 256;
#X obj 406 131 nbx 5 15 -1e+37 1e+37 0 0 \$0-pitch \$0-pitch-r pitch
0 -8 0 10 -260145 -262144 -133184 0 256;
#X obj 473 64 cnv 15 15 15 empty \$0-text ms 0 6 0 10 -262144 -133184
0;
#X obj 466 99 cnv 15 15 15 empty \$0-text ms 0 6 0 10 -262144 -133184
0;
#X obj 466 134 cnv 15 15 15 empty \$0-text mid 0 6 0 10 -262144 -133184
0;
#X obj 494 61 nbx 4 15 0 100 0 0 \$0-feedback \$0-feedback-r feedback
0 -8 0 10 -260145 -262144 -133184 0 256;
#X obj 494 166 nbx 4 15 0 100 0 0 \$0-drywet \$0-drywet-r drywet 0
-8 0 10 -260145 -262144 -133184 0 256;
#X obj 494 131 nbx 5 15 0 1e+37 0 0 \$0-pitch-random \$0-pitch-random-r
random_pitch 0 -8 0 10 -260145 -262144 -133184 0 256;
#X obj 494 96 nbx 4 15 0 3 0 0 \$0-ratio \$0-ratio-r ratio 0 -8 0 10
-260145 -262144 -133184 0 256;
#X obj 466 169 cnv 15 15 15 empty \$0-text ms 0 6 0 10 -262144 -133184
0;
#X obj 544 169 cnv 15 15 15 empty \$0-text % 0 6 0 10 -262144 -133184
0;
#X obj 544 99 cnv 15 15 15 empty \$0-text x 0 6 0 10 -262144 -133184
0;
#X obj 544 64 cnv 15 15 15 empty \$0-text % 0 6 0 10 -262144 -133184
0;
#X obj 553 134 cnv 15 15 15 empty \$0-text % 0 6 0 10 -262144 -133184
0;
#X obj 393 634 r \$0-state;
#X obj 393 664 outlet;
#X connect 0 0 65 0;
#X connect 1 0 2 0;
#X connect 2 0 62 0;
#X connect 3 0 22 0;
#X connect 6 0 7 0;
#X connect 6 0 8 0;
#X connect 11 0 12 0;
#X connect 12 0 14 0;
#X connect 13 0 29 0;
#X connect 13 0 35 0;
#X connect 14 0 15 0;
#X connect 15 0 13 1;
#X connect 16 0 17 1;
#X connect 17 0 63 0;
#X connect 18 0 63 0;
#X connect 18 1 51 0;
#X connect 18 1 53 0;
#X connect 19 0 64 0;
#X connect 20 0 19 1;
#X connect 21 0 64 0;
#X connect 21 1 52 0;
#X connect 21 1 50 0;
#X connect 22 0 18 0;
#X connect 22 1 21 0;
#X connect 23 0 48 0;
#X connect 24 0 23 0;
#X connect 25 0 26 0;
#X connect 26 0 27 0;
#X connect 26 0 31 0;
#X connect 27 0 28 0;
#X connect 28 0 29 1;
#X connect 29 0 70 0;
#X connect 30 0 70 0;
#X connect 31 0 32 0;
#X connect 32 0 33 0;
#X connect 33 0 30 1;
#X connect 34 0 54 0;
#X connect 36 0 17 0;
#X connect 36 0 19 0;
#X connect 37 0 38 0;
#X connect 38 0 55 0;
#X connect 39 0 43 0;
#X connect 40 0 41 0;
#X connect 41 0 46 0;
#X connect 42 0 40 0;
#X connect 42 1 41 1;
#X connect 42 2 41 2;
#X connect 43 0 42 0;
#X connect 43 1 42 1;
#X connect 44 0 45 0;
#X connect 46 0 13 0;
#X connect 48 0 47 0;
#X connect 49 0 46 1;
#X connect 50 0 16 0;
#X connect 51 0 16 0;
#X connect 52 0 20 0;
#X connect 53 0 20 0;
#X connect 54 0 24 1;
#X connect 55 0 57 0;
#X connect 56 0 55 1;
#X connect 57 0 59 0;
#X connect 58 0 39 0;
#X connect 59 0 58 0;
#X connect 60 0 61 0;
#X connect 61 0 59 1;
#X connect 62 0 44 0;
#X connect 62 0 61 1;
#X connect 62 0 66 0;
#X connect 65 0 3 0;
#X connect 65 0 24 0;
#X connect 65 0 67 0;
#X connect 66 0 6 0;
#X connect 66 0 57 1;
#X connect 66 0 58 1;
#X connect 67 0 56 0;
#X connect 68 0 38 1;
#X connect 69 0 19 0;
#X connect 69 0 17 0;
#X connect 69 0 30 0;
#X connect 71 0 72 0;
#X connect 90 0 91 0;
#X coords 0 -1 1 1 170 150 2 400 40;
